<svg xmlns="http://www.w3.org/2000/svg" xmlns:xlink="http://www.w3.org/1999/xlink" xmlns:lucid="lucid" width="1223" height="1140"><g transform="translate(-292 -100)" lucid:page-tab-id="0_0"><path d="M761 223c0-1.66 1.34-3 3-3h134c1.66 0 3 1.34 3 3v94c0 1.66-1.34 3-3 3H764c-1.66 0-3-1.34-3-3z" stroke="#00987e" stroke-width="4" fill="#95d6cb"/><use xlink:href="#a" transform="matrix(1,0,0,1,766,225) translate(50.068209876543214 34.83055555555555)"/><use xlink:href="#b" transform="matrix(1,0,0,1,766,225) translate(38.814814814814824 61.763888888888886)"/><path d="M761 423c0-1.66 1.34-3 3-3h134c1.66 0 3 1.34 3 3v94c0 1.66-1.34 3-3 3H764c-1.66 0-3-1.34-3-3z" stroke="#00987e" stroke-width="4" fill="#95d6cb"/><use xlink:href="#c" transform="matrix(1,0,0,1,766,425) translate(33.23487654320988 23.580555555555552)"/><use xlink:href="#d" transform="matrix(1,0,0,1,766,425) translate(23.883024691358038 50.513888888888886)"/><use xlink:href="#b" transform="matrix(1,0,0,1,766,425) translate(38.814814814814824 77.44722222222221)"/><path d="M832 399.5h-2v-27.68h2zm0-49.28h-2V323h2z" fill="#303030"/><path d="M832 323.03h-2V322h2zM831 414.76l-4.64-14.26h9.28z" fill="#303030"/><path d="M831 418l-6-18.5h12zm-3.26-16.5l3.26 10.03 3.26-10.03z" fill="#303030"/><use xlink:href="#e" transform="matrix(1,0,0,1,787.575,350.21509743853454) translate(0.005000000000002558 14.4)"/><path d="M761 623c0-1.66 1.34-3 3-3h134c1.66 0 3 1.34 3 3v94c0 1.66-1.34 3-3 3H764c-1.66 0-3-1.34-3-3z" stroke="#00987e" stroke-width="4" fill="#95d6cb"/><use xlink:href="#f" transform="matrix(1,0,0,1,766,625) translate(46.95092592592593 34.83055555555555)"/><use xlink:href="#b" transform="matrix(1,0,0,1,766,625) translate(38.814814814814824 61.763888888888886)"/><path d="M761 873c0-1.66 1.34-3 3-3h134c1.66 0 3 1.34 3 3v94c0 1.66-1.34 3-3 3H764c-1.66 0-3-1.34-3-3z" stroke="#00987e" stroke-width="4" fill="#95d6cb"/><use xlink:href="#g" transform="matrix(1,0,0,1,766,875) translate(21.420370370370378 34.83055555555555)"/><use xlink:href="#b" transform="matrix(1,0,0,1,766,875) translate(38.814814814814824 61.763888888888886)"/><path d="M483.27 722.82c0-1.66 1.35-3 3-3h134c1.66 0 3 1.34 3 3v94c0 1.66-1.34 3-3 3h-134c-1.65 0-3-1.34-3-3z" stroke="#00987e" stroke-width="4" fill="#95d6cb"/><use xlink:href="#h" transform="matrix(1,0,0,1,488.2735006103677,724.82156083429) translate(13.34660493827161 34.83055555555555)"/><use xlink:href="#b" transform="matrix(1,0,0,1,488.2735006103677,724.82156083429) translate(38.814814814814824 61.763888888888886)"/><path d="M1156 523c0-1.66 1.34-3 3-3h134c1.66 0 3 1.34 3 3v94c0 1.66-1.34 3-3 3h-134c-1.66 0-3-1.34-3-3z" stroke="#c92d39" stroke-width="4" fill="#ff8f80"/><use xlink:href="#i" transform="matrix(1,0,0,1,1161,525) translate(24.60000000000001 34.83055555555555)"/><use xlink:href="#b" transform="matrix(1,0,0,1,1161,525) translate(38.814814814814824 61.763888888888886)"/><path d="M1156 263c0-1.66 1.34-3 3-3h134c1.66 0 3 1.34 3 3v94c0 1.66-1.34 3-3 3h-134c-1.66 0-3-1.34-3-3z" stroke="#00987e" stroke-width="4" fill="#95d6cb"/><use xlink:href="#j" transform="matrix(1,0,0,1,1161,265) translate(14.00123456790125 34.83055555555555)"/><use xlink:href="#b" transform="matrix(1,0,0,1,1161,265) translate(38.814814814814824 61.763888888888886)"/><path d="M761 1103c0-1.66 1.34-3 3-3h134c1.66 0 3 1.34 3 3v94c0 1.66-1.34 3-3 3H764c-1.66 0-3-1.34-3-3z" stroke="#666" stroke-width="4" fill="#b2b2b2"/><use xlink:href="#k" transform="matrix(1,0,0,1,766,1105) translate(15.154629629629639 34.83055555555555)"/><use xlink:href="#b" transform="matrix(1,0,0,1,766,1105) translate(38.814814814814824 61.763888888888886)"/><path d="M1399 567.2l-1.1 2.7-2.7 1.1h-78.7v-2h78.3l1.56-.64.64-1.56V375.96h2zm-1.1-327.07l1.1 2.7v111.53h-2V243.22l-.64-1.56-1.56-.64H904v-2h491.2z" fill="#303030"/><path d="M904.03 241.02H903v-2h1.03zM1315.5 574.64l-14.26-4.64 14.26-4.64z" fill="#303030"/><path d="M1316.5 576l-18.5-6 18.5-6zm-12.03-6l10.03 3.26v-6.52z" fill="#303030"/><use xlink:href="#l" transform="matrix(1,0,0,1,1317.675,354.35744396373184) translate(0.0049999999999954525 14.4)"/><path d="M1005.93 283.1H921.5v-2h84.43zm147.07-.57h-60.22v-2H1153z" fill="#303030"/><path d="M1154 282.53h-1.03v-2h1.03zM920.5 286.73l-14.26-4.63 14.26-4.64z" fill="#303030"/><path d="M921.5 288.1l-18.5-6 18.5-6zm-12.03-6l10.03 3.26v-6.52z" fill="#303030"/><use xlink:href="#e" transform="matrix(1,0,0,1,1005.9348410805721,270.7347260910164) translate(0.005000000000002558 14.4)"/><path d="M1284.58 517h-2v-49.08h2zm0-70.68h-2V380.5h2z" fill="#303030"/><path d="M1284.58 518h-2v-1.03h2zM1288.2 379.5h-9.26l4.64-14.26z" fill="#303030"/><path d="M1289.6 380.5h-12.03l6-18.5zm-9.28-2h6.52l-3.26-10.03z" fill="#303030"/><use xlink:href="#m" transform="matrix(1,0,0,1,1180.9275986388718,446.3222305312368) translate(0 14.4)"/><path d="M1174.57 499.5h-2v-86.83h2zm0-108.43h-2V363h2z" fill="#303030"/><path d="M1174.57 363.03h-2V362h2zM1173.57 514.76l-4.64-14.26h9.27z" fill="#303030"/><path d="M1173.57 518l-6-18.5h12zm-3.26-16.5l3.27 10.03 3.26-10.03z" fill="#303030"/><use xlink:href="#l" transform="matrix(1,0,0,1,1093.2425030146544,391.0671597745277) translate(0.0049999999999954525 14.4)"/><path d="M832 599.5h-2v-31.15h2zm0-52.75h-2V523h2z" fill="#303030"/><path d="M832 523.03h-2V522h2zM831 614.76l-4.64-14.26h9.28z" fill="#303030"/><path d="M831 618l-6-18.5h12zm-3.26-16.5l3.26 10.03 3.26-10.03z" fill="#303030"/><use xlink:href="#e" transform="matrix(1,0,0,1,787.575,546.749330891063) translate(0 14.4)"/><path d="M431 1146.8l.64 1.56 1.56.64h307.3v2H432.8l-2.7-1.1-1.1-2.7V553.7h2zM758 471H433.2l-1.56.64-.64 1.56v58.9h-2v-59.3l1.1-2.7 2.7-1.1H758z" fill="#303030"/><path d="M759 471h-1.03v-2H759zM755.76 1150l-14.26 4.64v-9.28z" fill="#303030"/><path d="M759 1150l-18.5 6v-12zm-16.5 3.26l10.03-3.26-10.03-3.26z" fill="#303030"/><use xlink:href="#n" transform="matrix(1,0,0,1,336.125,532.0946253389884) translate(0 14.4)"/><path d="M554.27 699.32h-2v-24.54h2zm102.34-60.3l.12.16H758v2H655.73l-.12-.15-99.13-.03-1.55.64-.65 1.56v9.98h-2V642.8l1.12-2.7 2.67-1.1z" fill="#303030"/><path d="M759 641.18h-1.03v-2H759zM553.27 714.6l-4.63-14.28h9.27z" fill="#303030"/><path d="M553.27 717.82l-6-18.5h12.02zm-3.26-16.5l3.27 10.03 3.26-10.03z" fill="#303030"/><use xlink:href="#o" transform="matrix(1,0,0,1,457.9485006103677,653.1754847556796) translate(0 14.4)"/><path d="M740.5 690.37h-84.03l-1.55.64-.65 1.56v174.46l-1.1 2.7-2.7 1.1h-94.4l-2.68-1.1-1.13-2.7v-6.84h2v6.44l.65 1.56 1.55.64h93.6l1.56-.64.64-1.56V692.17l1.12-2.7 2.67-1.1h84.43zm-186.23 148.2h-2v-15.75h2z" fill="#303030"/><path d="M554.27 822.85h-2v-1.03h2zM755.76 689.37L741.5 694v-9.27z" fill="#303030"/><path d="M759 689.37l-18.5 6v-12.02zm-16.5 3.25l10.03-3.25-10.03-3.26z" fill="#303030"/><use xlink:href="#o" transform="matrix(1,0,0,1,457.9485006103677,838.5829452745454) translate(0 14.4)"/><path d="M1227 917.2l-1.1 2.7-2.7 1.1H904v-2h318.8l1.56-.64.64-1.56V815.5h2zm0-123.3h-2V640.5h2z" fill="#303030"/><path d="M904.03 921H903v-2h1.03zM1230.64 639.5h-9.28l4.64-14.26z" fill="#303030"/><path d="M1232 640.5h-12l6-18.5zm-9.26-2h6.52l-3.26-10.03z" fill="#303030"/><use xlink:href="#l" transform="matrix(1,0,0,1,1145.675,793.8963562753042) translate(0.0049999999999954525 14.4)"/><path d="M832 1079.5h-2v-19.95h2zm0-84.75h-2V973h2z" fill="#303030"/><path d="M832 973.03h-2V972h2zM831 1094.76l-4.64-14.26h9.28z" fill="#303030"/><path d="M831 1098l-6-18.5h12zm-3.26-16.5l3.26 10.03 3.26-10.03z" fill="#303030"/><use xlink:href="#p" transform="matrix(1,0,0,1,737.125,994.7532608865303) translate(0.0049999999999954525 14.4)"/><use xlink:href="#q" transform="matrix(1,0,0,1,737.125,994.7532608865303) translate(13.554999999999993 36)"/><use xlink:href="#r" transform="matrix(1,0,0,1,737.125,994.7532608865303) translate(34.504999999999995 36)"/><use xlink:href="#q" transform="matrix(1,0,0,1,737.125,994.7532608865303) translate(14.004999999999995 57.6)"/><use xlink:href="#s" transform="matrix(1,0,0,1,737.125,994.7532608865303) translate(34.955 57.6)"/><path d="M778.73 849.5h-2v-72.74h2zm0-93.54h-2V723h2z" fill="#303030"/><path d="M778.73 723.03h-2V722h2zM777.73 864.76l-4.64-14.26h9.26z" fill="#303030"/><path d="M777.73 868l-6.02-18.5h12.04zm-3.26-16.5l3.26 10.03L781 851.5z" fill="#303030"/><use xlink:href="#t" transform="matrix(1,0,0,1,675.8209438340767,755.9584017961449) translate(0 13.866666666666667)"/><path d="M886.12 867h-2v-35.93h2zm0-56.73h-2V740.5h2z" fill="#303030"/><path d="M886.12 868h-2v-1.03h2zM889.75 739.5h-9.27l4.64-14.26z" fill="#303030"/><path d="M891.13 740.5H879.1l6.02-18.5zm-9.27-2h6.52l-3.26-10.03z" fill="#303030"/><g><use xlink:href="#u" transform="matrix(1,0,0,1,783.2130217007966,810.2666666666671) translate(0 13.866666666666669)"/></g><path d="M1029.5 667.2l-1.1 2.7-2.7 1.1H904v-2h121.3l1.56-.64.64-1.56v-64.67h2zm106-330.2h-103.8l-1.56.64-.64 1.55v241.33h-2V338.8l1.1-2.7 2.7-1.1h104.2z" fill="#303030"/><path d="M904.03 671H903v-2h1.03zM1150.76 336l-14.26 4.63v-9.27z" fill="#303030"/><path d="M1154 336l-18.5 6v-12.02zm-16.5 3.25l10.03-3.26-10.03-3.27z" fill="#303030"/><g><use xlink:href="#m" transform="matrix(1,0,0,1,925.85,580.5333333333336) translate(0 14.4)"/></g><path d="M832 199.5h-2v-20.85h2zM831 214.76l-4.64-14.26h9.28z" fill="#303030"/><path d="M831 218l-6-18.5h12zm-3.26-16.5l3.26 10.03 3.26-10.03z" fill="#303030"/><path fill="#303030"/><g><use xlink:href="#v" transform="matrix(1,0,0,1,753.1,135.4464794610097) translate(29.479999999999997 14.4)"/><use xlink:href="#w" transform="matrix(1,0,0,1,753.1,135.4464794610097) translate(85.38 14.4)"/><use xlink:href="#x" transform="matrix(1,0,0,1,753.1,135.4464794610097) translate(110.38 14.4)"/><use xlink:href="#y" transform="matrix(1,0,0,1,753.1,135.4464794610097) translate(0.0049999999999954525 36)"/></g><defs><path fill="#303030" d="M33 0v-248h34V0H33" id="z"/><path fill="#303030" d="M117-194c89-4 53 116 60 194h-32v-121c0-31-8-49-39-48C34-167 62-67 57 0H25l-1-190h30c1 10-1 24 2 32 11-22 29-35 61-36" id="A"/><path fill="#303030" d="M24-231v-30h32v30H24zM24 0v-190h32V0H24" id="B"/><path fill="#303030" d="M59-47c-2 24 18 29 38 22v24C64 9 27 4 27-40v-127H5v-23h24l9-43h21v43h35v23H59v120" id="C"/><g id="a"><use transform="matrix(0.06234567901234567,0,0,0.06234567901234567,0,0)" xlink:href="#z"/><use transform="matrix(0.06234567901234567,0,0,0.06234567901234567,6.234567901234566,0)" xlink:href="#A"/><use transform="matrix(0.06234567901234567,0,0,0.06234567901234567,18.7037037037037,0)" xlink:href="#B"/><use transform="matrix(0.06234567901234567,0,0,0.06234567901234567,23.62901234567901,0)" xlink:href="#C"/></g><path fill="#303030" d="M185-189c-5-48-123-54-124 2 14 75 158 14 163 119 3 78-121 87-175 55-17-10-28-26-33-46l33-7c5 56 141 63 141-1 0-78-155-14-162-118-5-82 145-84 179-34 5 7 8 16 11 25" id="D"/><path fill="#303030" d="M141-36C126-15 110 5 73 4 37 3 15-17 15-53c-1-64 63-63 125-63 3-35-9-54-41-54-24 1-41 7-42 31l-33-3c5-37 33-52 76-52 45 0 72 20 72 64v82c-1 20 7 32 28 27v20c-31 9-61-2-59-35zM48-53c0 20 12 33 32 33 41-3 63-29 60-74-43 2-92-5-92 41" id="E"/><path fill="#303030" d="M100-194c63 0 86 42 84 106H49c0 40 14 67 53 68 26 1 43-12 49-29l28 8c-11 28-37 45-77 45C44 4 14-33 15-96c1-61 26-98 85-98zm52 81c6-60-76-77-97-28-3 7-6 17-6 28h103" id="F"/><g id="b"><use transform="matrix(0.06234567901234567,0,0,0.06234567901234567,0,0)" xlink:href="#D"/><use transform="matrix(0.06234567901234567,0,0,0.06234567901234567,14.96296296296296,0)" xlink:href="#C"/><use transform="matrix(0.06234567901234567,0,0,0.06234567901234567,21.197530864197525,0)" xlink:href="#E"/><use transform="matrix(0.06234567901234567,0,0,0.06234567901234567,33.66666666666666,0)" xlink:href="#C"/><use transform="matrix(0.06234567901234567,0,0,0.06234567901234567,39.90123456790123,0)" xlink:href="#F"/></g><path fill="#303030" d="M212-179c-10-28-35-45-73-45-59 0-87 40-87 99 0 60 29 101 89 101 43 0 62-24 78-52l27 14C228-24 195 4 139 4 59 4 22-46 18-125c-6-104 99-153 187-111 19 9 31 26 39 46" id="G"/><path fill="#303030" d="M106-169C34-169 62-67 57 0H25v-261h32l-1 103c12-21 28-36 61-36 89 0 53 116 60 194h-32v-121c2-32-8-49-39-48" id="H"/><path fill="#303030" d="M96-169c-40 0-48 33-48 73s9 75 48 75c24 0 41-14 43-38l32 2c-6 37-31 61-74 61-59 0-76-41-82-99-10-93 101-131 147-64 4 7 5 14 7 22l-32 3c-4-21-16-35-41-35" id="I"/><path fill="#303030" d="M143 0L79-87 56-68V0H24v-261h32v163l83-92h37l-77 82L181 0h-38" id="J"/><g id="c"><use transform="matrix(0.06234567901234567,0,0,0.06234567901234567,0,0)" xlink:href="#G"/><use transform="matrix(0.06234567901234567,0,0,0.06234567901234567,16.147530864197527,0)" xlink:href="#H"/><use transform="matrix(0.06234567901234567,0,0,0.06234567901234567,28.61666666666666,0)" xlink:href="#F"/><use transform="matrix(0.06234567901234567,0,0,0.06234567901234567,41.08580246913579,0)" xlink:href="#I"/><use transform="matrix(0.06234567901234567,0,0,0.06234567901234567,52.308024691358014,0)" xlink:href="#J"/></g><path fill="#303030" d="M135-143c-3-34-86-38-87 0 15 53 115 12 119 90S17 21 10-45l28-5c4 36 97 45 98 0-10-56-113-15-118-90-4-57 82-63 122-42 12 7 21 19 24 35" id="K"/><path fill="#303030" d="M100-194c62-1 85 37 85 99 1 63-27 99-86 99S16-35 15-95c0-66 28-99 85-99zM99-20c44 1 53-31 53-75 0-43-8-75-51-75s-53 32-53 75 10 74 51 75" id="L"/><path fill="#303030" d="M114-163C36-179 61-72 57 0H25l-1-190h30c1 12-1 29 2 39 6-27 23-49 58-41v29" id="M"/><g id="d"><use transform="matrix(0.06234567901234567,0,0,0.06234567901234567,0,0)" xlink:href="#D"/><use transform="matrix(0.06234567901234567,0,0,0.06234567901234567,14.96296296296296,0)" xlink:href="#F"/><use transform="matrix(0.06234567901234567,0,0,0.06234567901234567,27.432098765432094,0)" xlink:href="#A"/><use transform="matrix(0.06234567901234567,0,0,0.06234567901234567,39.90123456790123,0)" xlink:href="#K"/><use transform="matrix(0.06234567901234567,0,0,0.06234567901234567,51.12345679012345,0)" xlink:href="#L"/><use transform="matrix(0.06234567901234567,0,0,0.06234567901234567,63.59259259259258,0)" xlink:href="#M"/><use transform="matrix(0.06234567901234567,0,0,0.06234567901234567,71.01172839506171,0)" xlink:href="#K"/></g><path fill="#303030" d="M232-93c-1 65-40 97-104 97C67 4 28-28 28-90v-158h33c8 89-33 224 67 224 102 0 64-133 71-224h33v155" id="N"/><path fill="#303030" d="M30 0v-248h187v28H63v79h144v27H63v87h162V0H30" id="O"/><g id="e"><use transform="matrix(0.05,0,0,0.05,0,0)" xlink:href="#D"/><use transform="matrix(0.05,0,0,0.05,12,0)" xlink:href="#N"/><use transform="matrix(0.05,0,0,0.05,24.950000000000003,0)" xlink:href="#G"/><use transform="matrix(0.05,0,0,0.05,37.900000000000006,0)" xlink:href="#G"/><use transform="matrix(0.05,0,0,0.05,50.85000000000001,0)" xlink:href="#O"/><use transform="matrix(0.05,0,0,0.05,62.85,0)" xlink:href="#D"/><use transform="matrix(0.05,0,0,0.05,74.85000000000001,0)" xlink:href="#D"/></g><path fill="#303030" d="M85-194c31 0 48 13 60 33l-1-100h32l1 261h-30c-2-10 0-23-3-31C134-8 116 4 85 4 32 4 16-35 15-94c0-66 23-100 70-100zm9 24c-40 0-46 34-46 75 0 40 6 74 45 74 42 0 51-32 51-76 0-42-9-74-50-73" id="P"/><path fill="#303030" d="M24 0v-261h32V0H24" id="Q"/><g id="f"><use transform="matrix(0.06234567901234567,0,0,0.06234567901234567,0,0)" xlink:href="#z"/><use transform="matrix(0.06234567901234567,0,0,0.06234567901234567,6.234567901234566,0)" xlink:href="#P"/><use transform="matrix(0.06234567901234567,0,0,0.06234567901234567,18.7037037037037,0)" xlink:href="#Q"/><use transform="matrix(0.06234567901234567,0,0,0.06234567901234567,23.62901234567901,0)" xlink:href="#F"/></g><path fill="#303030" d="M240 0l2-218c-23 76-54 145-80 218h-23L58-218 59 0H30v-248h44l77 211c21-75 51-140 76-211h43V0h-30" id="R"/><path fill="#303030" d="M84 4C-5 8 30-112 23-190h32v120c0 31 7 50 39 49 72-2 45-101 50-169h31l1 190h-30c-1-10 1-25-2-33-11 22-28 36-60 37" id="S"/><g id="g"><use transform="matrix(0.06234567901234567,0,0,0.06234567901234567,0,0)" xlink:href="#R"/><use transform="matrix(0.06234567901234567,0,0,0.06234567901234567,18.641358024691353,0)" xlink:href="#F"/><use transform="matrix(0.06234567901234567,0,0,0.06234567901234567,31.110493827160486,0)" xlink:href="#E"/><use transform="matrix(0.06234567901234567,0,0,0.06234567901234567,43.57962962962962,0)" xlink:href="#K"/><use transform="matrix(0.06234567901234567,0,0,0.06234567901234567,54.80185185185184,0)" xlink:href="#S"/><use transform="matrix(0.06234567901234567,0,0,0.06234567901234567,67.27098765432098,0)" xlink:href="#M"/><use transform="matrix(0.06234567901234567,0,0,0.06234567901234567,74.6901234567901,0)" xlink:href="#F"/></g><path fill="#303030" d="M210-169c-67 3-38 105-44 169h-31v-121c0-29-5-50-35-48C34-165 62-65 56 0H25l-1-190h30c1 10-1 24 2 32 10-44 99-50 107 0 11-21 27-35 58-36 85-2 47 119 55 194h-31v-121c0-29-5-49-35-48" id="T"/><g id="h"><use transform="matrix(0.06234567901234567,0,0,0.06234567901234567,0,0)" xlink:href="#G"/><use transform="matrix(0.06234567901234567,0,0,0.06234567901234567,16.147530864197527,0)" xlink:href="#L"/><use transform="matrix(0.06234567901234567,0,0,0.06234567901234567,28.61666666666666,0)" xlink:href="#T"/><use transform="matrix(0.06234567901234567,0,0,0.06234567901234567,47.25802469135802,0)" xlink:href="#T"/><use transform="matrix(0.06234567901234567,0,0,0.06234567901234567,65.89938271604937,0)" xlink:href="#E"/><use transform="matrix(0.06234567901234567,0,0,0.06234567901234567,78.3685185185185,0)" xlink:href="#A"/><use transform="matrix(0.06234567901234567,0,0,0.06234567901234567,90.83765432098764,0)" xlink:href="#P"/></g><path fill="#303030" d="M30-248c118-7 216 8 213 122C240-48 200 0 122 0H30v-248zM63-27c89 8 146-16 146-99s-60-101-146-95v194" id="U"/><g id="i"><use transform="matrix(0.06234567901234567,0,0,0.06234567901234567,0,0)" xlink:href="#D"/><use transform="matrix(0.06234567901234567,0,0,0.06234567901234567,14.96296296296296,0)" xlink:href="#U"/><use transform="matrix(0.06234567901234567,0,0,0.06234567901234567,31.11049382716049,0)" xlink:href="#O"/><use transform="matrix(0.06234567901234567,0,0,0.06234567901234567,46.07345679012345,0)" xlink:href="#M"/><use transform="matrix(0.06234567901234567,0,0,0.06234567901234567,53.49259259259259,0)" xlink:href="#M"/><use transform="matrix(0.06234567901234567,0,0,0.06234567901234567,60.91172839506172,0)" xlink:href="#L"/><use transform="matrix(0.06234567901234567,0,0,0.06234567901234567,73.38086419753085,0)" xlink:href="#M"/></g><path fill="#303030" d="M63-220v92h138v28H63V0H30v-248h175v28H63" id="V"/><g id="j"><use transform="matrix(0.06234567901234567,0,0,0.06234567901234567,0,0)" xlink:href="#V"/><use transform="matrix(0.06234567901234567,0,0,0.06234567901234567,13.653703703703702,0)" xlink:href="#L"/><use transform="matrix(0.06234567901234567,0,0,0.06234567901234567,26.122839506172834,0)" xlink:href="#M"/><use transform="matrix(0.06234567901234567,0,0,0.06234567901234567,33.541975308641966,0)" xlink:href="#T"/><use transform="matrix(0.06234567901234567,0,0,0.06234567901234567,52.18333333333332,0)" xlink:href="#E"/><use transform="matrix(0.06234567901234567,0,0,0.06234567901234567,64.65246913580245,0)" xlink:href="#C"/><use transform="matrix(0.06234567901234567,0,0,0.06234567901234567,70.88703703703702,0)" xlink:href="#D"/><use transform="matrix(0.06234567901234567,0,0,0.06234567901234567,85.84999999999998,0)" xlink:href="#U"/></g><path fill="#303030" d="M206 0h-36l-40-164L89 0H53L-1-190h32L70-26l43-164h34l41 164 42-164h31" id="W"/><g id="k"><use transform="matrix(0.06234567901234567,0,0,0.06234567901234567,0,0)" xlink:href="#D"/><use transform="matrix(0.06234567901234567,0,0,0.06234567901234567,14.96296296296296,0)" xlink:href="#H"/><use transform="matrix(0.06234567901234567,0,0,0.06234567901234567,27.432098765432094,0)" xlink:href="#S"/><use transform="matrix(0.06234567901234567,0,0,0.06234567901234567,39.90123456790123,0)" xlink:href="#C"/><use transform="matrix(0.06234567901234567,0,0,0.06234567901234567,46.1358024691358,0)" xlink:href="#P"/><use transform="matrix(0.06234567901234567,0,0,0.06234567901234567,58.60493827160493,0)" xlink:href="#L"/><use transform="matrix(0.06234567901234567,0,0,0.06234567901234567,71.07407407407406,0)" xlink:href="#W"/><use transform="matrix(0.06234567901234567,0,0,0.06234567901234567,87.22160493827158,0)" xlink:href="#A"/></g><path fill="#303030" d="M-5 72V49h209v23H-5" id="X"/><path fill="#303030" d="M205 0l-28-72H64L36 0H1l101-248h38L239 0h-34zm-38-99l-47-123c-12 45-31 82-46 123h93" id="Y"/><path fill="#303030" d="M233-177c-1 41-23 64-60 70L243 0h-38l-65-103H63V0H30v-248c88 3 205-21 203 71zM63-129c60-2 137 13 137-47 0-61-80-42-137-45v92" id="Z"/><path fill="#303030" d="M140-251c81 0 123 46 123 126C263-46 219 4 140 4 59 4 17-45 17-125s42-126 123-126zm0 227c63 0 89-41 89-101s-29-99-89-99c-61 0-89 39-89 99S79-25 140-24" id="aa"/><g id="l"><use transform="matrix(0.05,0,0,0.05,0,0)" xlink:href="#D"/><use transform="matrix(0.05,0,0,0.05,12,0)" xlink:href="#U"/><use transform="matrix(0.05,0,0,0.05,24.950000000000003,0)" xlink:href="#X"/><use transform="matrix(0.05,0,0,0.05,34.95,0)" xlink:href="#G"/><use transform="matrix(0.05,0,0,0.05,47.900000000000006,0)" xlink:href="#Y"/><use transform="matrix(0.05,0,0,0.05,59.900000000000006,0)" xlink:href="#Z"/><use transform="matrix(0.05,0,0,0.05,72.85000000000001,0)" xlink:href="#U"/><use transform="matrix(0.05,0,0,0.05,85.80000000000001,0)" xlink:href="#X"/><use transform="matrix(0.05,0,0,0.05,95.80000000000001,0)" xlink:href="#O"/><use transform="matrix(0.05,0,0,0.05,107.80000000000001,0)" xlink:href="#Z"/><use transform="matrix(0.05,0,0,0.05,120.75,0)" xlink:href="#Z"/><use transform="matrix(0.05,0,0,0.05,133.70000000000002,0)" xlink:href="#aa"/><use transform="matrix(0.05,0,0,0.05,147.70000000000002,0)" xlink:href="#Z"/></g><path fill="#303030" d="M127-220V0H93v-220H8v-28h204v28h-85" id="ab"/><path fill="#303030" d="M30-248c87 1 191-15 191 75 0 78-77 80-158 76V0H30v-248zm33 125c57 0 124 11 124-50 0-59-68-47-124-48v98" id="ac"/><g id="m"><use transform="matrix(0.05,0,0,0.05,0,0)" xlink:href="#V"/><use transform="matrix(0.05,0,0,0.05,10.950000000000001,0)" xlink:href="#aa"/><use transform="matrix(0.05,0,0,0.05,24.950000000000003,0)" xlink:href="#Z"/><use transform="matrix(0.05,0,0,0.05,37.900000000000006,0)" xlink:href="#R"/><use transform="matrix(0.05,0,0,0.05,52.85,0)" xlink:href="#Y"/><use transform="matrix(0.05,0,0,0.05,63.5,0)" xlink:href="#ab"/><use transform="matrix(0.05,0,0,0.05,74.45,0)" xlink:href="#X"/><use transform="matrix(0.05,0,0,0.05,84.45,0)" xlink:href="#D"/><use transform="matrix(0.05,0,0,0.05,96.45,0)" xlink:href="#U"/><use transform="matrix(0.05,0,0,0.05,109.4,0)" xlink:href="#X"/><use transform="matrix(0.05,0,0,0.05,119.4,0)" xlink:href="#ac"/><use transform="matrix(0.05,0,0,0.05,131.4,0)" xlink:href="#Z"/><use transform="matrix(0.05,0,0,0.05,144.35,0)" xlink:href="#O"/><use transform="matrix(0.05,0,0,0.05,156.35,0)" xlink:href="#D"/><use transform="matrix(0.05,0,0,0.05,168.35,0)" xlink:href="#D"/><use transform="matrix(0.05,0,0,0.05,180.35,0)" xlink:href="#O"/><use transform="matrix(0.05,0,0,0.05,192.35,0)" xlink:href="#U"/></g><path fill="#303030" d="M190 0L58-211 59 0H30v-248h39L202-35l-2-213h31V0h-41" id="ad"/><path fill="#303030" d="M137 0h-34L2-248h35l83 218 83-218h36" id="ae"/><g id="n"><use transform="matrix(0.05,0,0,0.05,0,0)" xlink:href="#ad"/><use transform="matrix(0.05,0,0,0.05,12.950000000000001,0)" xlink:href="#aa"/><use transform="matrix(0.05,0,0,0.05,26.950000000000003,0)" xlink:href="#X"/><use transform="matrix(0.05,0,0,0.05,36.95,0)" xlink:href="#D"/><use transform="matrix(0.05,0,0,0.05,48.95,0)" xlink:href="#O"/><use transform="matrix(0.05,0,0,0.05,60.95,0)" xlink:href="#ad"/><use transform="matrix(0.05,0,0,0.05,73.9,0)" xlink:href="#D"/><use transform="matrix(0.05,0,0,0.05,85.9,0)" xlink:href="#aa"/><use transform="matrix(0.05,0,0,0.05,99.9,0)" xlink:href="#Z"/><use transform="matrix(0.05,0,0,0.05,112.85000000000001,0)" xlink:href="#X"/><use transform="matrix(0.05,0,0,0.05,122.85000000000001,0)" xlink:href="#Y"/><use transform="matrix(0.05,0,0,0.05,134.85000000000002,0)" xlink:href="#G"/><use transform="matrix(0.05,0,0,0.05,147.8,0)" xlink:href="#ab"/><use transform="matrix(0.05,0,0,0.05,158.75,0)" xlink:href="#z"/><use transform="matrix(0.05,0,0,0.05,163.75,0)" xlink:href="#ae"/><use transform="matrix(0.05,0,0,0.05,175.75,0)" xlink:href="#O"/></g><g id="o"><use transform="matrix(0.05,0,0,0.05,0,0)" xlink:href="#G"/><use transform="matrix(0.05,0,0,0.05,12.950000000000001,0)" xlink:href="#aa"/><use transform="matrix(0.05,0,0,0.05,26.950000000000003,0)" xlink:href="#R"/><use transform="matrix(0.05,0,0,0.05,41.900000000000006,0)" xlink:href="#R"/><use transform="matrix(0.05,0,0,0.05,56.85,0)" xlink:href="#Y"/><use transform="matrix(0.05,0,0,0.05,68.85000000000001,0)" xlink:href="#ad"/><use transform="matrix(0.05,0,0,0.05,81.80000000000001,0)" xlink:href="#U"/><use transform="matrix(0.05,0,0,0.05,94.75000000000001,0)" xlink:href="#X"/><use transform="matrix(0.05,0,0,0.05,104.75,0)" xlink:href="#ac"/><use transform="matrix(0.05,0,0,0.05,116.75,0)" xlink:href="#Z"/><use transform="matrix(0.05,0,0,0.05,129.70000000000002,0)" xlink:href="#O"/><use transform="matrix(0.05,0,0,0.05,141.70000000000002,0)" xlink:href="#D"/><use transform="matrix(0.05,0,0,0.05,153.70000000000002,0)" xlink:href="#D"/><use transform="matrix(0.05,0,0,0.05,165.70000000000002,0)" xlink:href="#O"/><use transform="matrix(0.05,0,0,0.05,177.70000000000002,0)" xlink:href="#U"/></g><g id="p"><use transform="matrix(0.05,0,0,0.05,0,0)" xlink:href="#ad"/><use transform="matrix(0.05,0,0,0.05,12.950000000000001,0)" xlink:href="#aa"/><use transform="matrix(0.05,0,0,0.05,26.950000000000003,0)" xlink:href="#X"/><use transform="matrix(0.05,0,0,0.05,36.95,0)" xlink:href="#D"/><use transform="matrix(0.05,0,0,0.05,48.95,0)" xlink:href="#O"/><use transform="matrix(0.05,0,0,0.05,60.95,0)" xlink:href="#ad"/><use transform="matrix(0.05,0,0,0.05,73.9,0)" xlink:href="#D"/><use transform="matrix(0.05,0,0,0.05,85.9,0)" xlink:href="#aa"/><use transform="matrix(0.05,0,0,0.05,99.9,0)" xlink:href="#Z"/><use transform="matrix(0.05,0,0,0.05,112.85000000000001,0)" xlink:href="#X"/><use transform="matrix(0.05,0,0,0.05,122.85000000000001,0)" xlink:href="#Y"/><use transform="matrix(0.05,0,0,0.05,134.85000000000002,0)" xlink:href="#G"/><use transform="matrix(0.05,0,0,0.05,147.8,0)" xlink:href="#ab"/><use transform="matrix(0.05,0,0,0.05,158.75,0)" xlink:href="#z"/><use transform="matrix(0.05,0,0,0.05,163.75,0)" xlink:href="#ae"/><use transform="matrix(0.05,0,0,0.05,175.75,0)" xlink:href="#O"/></g><g id="q"><use transform="matrix(0.05,0,0,0.05,0,0)" xlink:href="#L"/><use transform="matrix(0.05,0,0,0.05,10,0)" xlink:href="#M"/></g><path fill="#303030" d="M30 0v-248h33v221h125V0H30" id="af"/><g id="r"><use transform="matrix(0.05,0,0,0.05,0,0)" xlink:href="#D"/><use transform="matrix(0.05,0,0,0.05,12,0)" xlink:href="#U"/><use transform="matrix(0.05,0,0,0.05,24.950000000000003,0)" xlink:href="#X"/><use transform="matrix(0.05,0,0,0.05,34.95,0)" xlink:href="#G"/><use transform="matrix(0.05,0,0,0.05,47.900000000000006,0)" xlink:href="#Y"/><use transform="matrix(0.05,0,0,0.05,59.900000000000006,0)" xlink:href="#Z"/><use transform="matrix(0.05,0,0,0.05,72.85000000000001,0)" xlink:href="#U"/><use transform="matrix(0.05,0,0,0.05,85.80000000000001,0)" xlink:href="#X"/><use transform="matrix(0.05,0,0,0.05,95.80000000000001,0)" xlink:href="#V"/><use transform="matrix(0.05,0,0,0.05,106.75,0)" xlink:href="#N"/><use transform="matrix(0.05,0,0,0.05,119.7,0)" xlink:href="#af"/><use transform="matrix(0.05,0,0,0.05,129.70000000000002,0)" xlink:href="#af"/></g><g id="s"><use transform="matrix(0.05,0,0,0.05,0,0)" xlink:href="#D"/><use transform="matrix(0.05,0,0,0.05,12,0)" xlink:href="#O"/><use transform="matrix(0.05,0,0,0.05,24,0)" xlink:href="#Z"/><use transform="matrix(0.05,0,0,0.05,36.95,0)" xlink:href="#z"/><use transform="matrix(0.05,0,0,0.05,41.95,0)" xlink:href="#Y"/><use transform="matrix(0.05,0,0,0.05,53.95,0)" xlink:href="#af"/><use transform="matrix(0.05,0,0,0.05,63.95,0)" xlink:href="#X"/><use transform="matrix(0.05,0,0,0.05,73.95,0)" xlink:href="#O"/><use transform="matrix(0.05,0,0,0.05,85.95,0)" xlink:href="#Z"/><use transform="matrix(0.05,0,0,0.05,98.9,0)" xlink:href="#Z"/><use transform="matrix(0.05,0,0,0.05,111.85000000000001,0)" xlink:href="#aa"/><use transform="matrix(0.05,0,0,0.05,125.85000000000001,0)" xlink:href="#Z"/></g><g id="t"><use transform="matrix(0.04814814814814815,0,0,0.04814814814814815,0,0)" xlink:href="#D"/><use transform="matrix(0.04814814814814815,0,0,0.04814814814814815,11.555555555555555,0)" xlink:href="#ab"/><use transform="matrix(0.04814814814814815,0,0,0.04814814814814815,20.799999999999997,0)" xlink:href="#Y"/><use transform="matrix(0.04814814814814815,0,0,0.04814814814814815,32.355555555555554,0)" xlink:href="#Z"/><use transform="matrix(0.04814814814814815,0,0,0.04814814814814815,44.48888888888889,0)" xlink:href="#ab"/><use transform="matrix(0.04814814814814815,0,0,0.04814814814814815,55.03333333333333,0)" xlink:href="#X"/><use transform="matrix(0.04814814814814815,0,0,0.04814814814814815,64.66296296296296,0)" xlink:href="#D"/><use transform="matrix(0.04814814814814815,0,0,0.04814814814814815,76.21851851851852,0)" xlink:href="#ab"/><use transform="matrix(0.04814814814814815,0,0,0.04814814814814815,86.42592592592592,0)" xlink:href="#aa"/><use transform="matrix(0.04814814814814815,0,0,0.04814814814814815,99.9074074074074,0)" xlink:href="#ac"/><use transform="matrix(0.04814814814814815,0,0,0.04814814814814815,111.46296296296296,0)" xlink:href="#X"/><use transform="matrix(0.04814814814814815,0,0,0.04814814814814815,121.0925925925926,0)" xlink:href="#ac"/><use transform="matrix(0.04814814814814815,0,0,0.04814814814814815,132.64814814814815,0)" xlink:href="#Z"/><use transform="matrix(0.04814814814814815,0,0,0.04814814814814815,145.11851851851853,0)" xlink:href="#O"/><use transform="matrix(0.04814814814814815,0,0,0.04814814814814815,156.67407407407407,0)" xlink:href="#D"/><use transform="matrix(0.04814814814814815,0,0,0.04814814814814815,168.2296296296296,0)" xlink:href="#D"/><use transform="matrix(0.04814814814814815,0,0,0.04814814814814815,179.78518518518516,0)" xlink:href="#O"/><use transform="matrix(0.04814814814814815,0,0,0.04814814814814815,191.3407407407407,0)" xlink:href="#U"/></g><g id="u"><use transform="matrix(0.048148148148148155,0,0,0.048148148148148155,0,0)" xlink:href="#D"/><use transform="matrix(0.048148148148148155,0,0,0.048148148148148155,11.555555555555557,0)" xlink:href="#ab"/><use transform="matrix(0.048148148148148155,0,0,0.048148148148148155,20.800000000000004,0)" xlink:href="#Y"/><use transform="matrix(0.048148148148148155,0,0,0.048148148148148155,32.35555555555556,0)" xlink:href="#Z"/><use transform="matrix(0.048148148148148155,0,0,0.048148148148148155,44.488888888888894,0)" xlink:href="#ab"/><use transform="matrix(0.048148148148148155,0,0,0.048148148148148155,55.03333333333334,0)" xlink:href="#X"/><use transform="matrix(0.048148148148148155,0,0,0.048148148148148155,64.66296296296296,0)" xlink:href="#D"/><use transform="matrix(0.048148148148148155,0,0,0.048148148148148155,76.21851851851852,0)" xlink:href="#ab"/><use transform="matrix(0.048148148148148155,0,0,0.048148148148148155,86.42592592592594,0)" xlink:href="#aa"/><use transform="matrix(0.048148148148148155,0,0,0.048148148148148155,99.90740740740742,0)" xlink:href="#ac"/><use transform="matrix(0.048148148148148155,0,0,0.048148148148148155,111.46296296296298,0)" xlink:href="#X"/><use transform="matrix(0.048148148148148155,0,0,0.048148148148148155,121.09259259259261,0)" xlink:href="#ac"/><use transform="matrix(0.048148148148148155,0,0,0.048148148148148155,132.64814814814815,0)" xlink:href="#Z"/><use transform="matrix(0.048148148148148155,0,0,0.048148148148148155,145.11851851851853,0)" xlink:href="#O"/><use transform="matrix(0.048148148148148155,0,0,0.048148148148148155,156.6740740740741,0)" xlink:href="#D"/><use transform="matrix(0.048148148148148155,0,0,0.048148148148148155,168.22962962962964,0)" xlink:href="#D"/><use transform="matrix(0.048148148148148155,0,0,0.048148148148148155,179.78518518518518,0)" xlink:href="#O"/><use transform="matrix(0.048148148148148155,0,0,0.048148148148148155,191.34074074074073,0)" xlink:href="#U"/></g><g id="v"><use transform="matrix(0.05,0,0,0.05,0,0)" xlink:href="#ac"/><use transform="matrix(0.05,0,0,0.05,12,0)" xlink:href="#L"/><use transform="matrix(0.05,0,0,0.05,22,0)" xlink:href="#W"/><use transform="matrix(0.05,0,0,0.05,34.95,0)" xlink:href="#F"/><use transform="matrix(0.05,0,0,0.05,44.95,0)" xlink:href="#M"/></g><g id="w"><use transform="matrix(0.05,0,0,0.05,0,0)" xlink:href="#L"/><use transform="matrix(0.05,0,0,0.05,10,0)" xlink:href="#A"/></g><g id="x"><use transform="matrix(0.05,0,0,0.05,0,0)" xlink:href="#L"/><use transform="matrix(0.05,0,0,0.05,10,0)" xlink:href="#M"/></g><g id="y"><use transform="matrix(0.05,0,0,0.05,0,0)" xlink:href="#Z"/><use transform="matrix(0.05,0,0,0.05,12.950000000000001,0)" xlink:href="#O"/><use transform="matrix(0.05,0,0,0.05,24.950000000000003,0)" xlink:href="#D"/><use transform="matrix(0.05,0,0,0.05,36.95,0)" xlink:href="#O"/><use transform="matrix(0.05,0,0,0.05,48.95,0)" xlink:href="#ab"/><use transform="matrix(0.05,0,0,0.05,59.900000000000006,0)" xlink:href="#X"/><use transform="matrix(0.05,0,0,0.05,69.9,0)" xlink:href="#ac"/><use transform="matrix(0.05,0,0,0.05,81.9,0)" xlink:href="#Z"/><use transform="matrix(0.05,0,0,0.05,94.85000000000001,0)" xlink:href="#O"/><use transform="matrix(0.05,0,0,0.05,106.85000000000001,0)" xlink:href="#D"/><use transform="matrix(0.05,0,0,0.05,118.85000000000001,0)" xlink:href="#D"/><use transform="matrix(0.05,0,0,0.05,130.85000000000002,0)" xlink:href="#O"/><use transform="matrix(0.05,0,0,0.05,142.85000000000002,0)" xlink:href="#U"/></g></defs></g></svg>